0.000000
0.011667
0.018922
0.030944
0.050433
0.066111
0.084211
0.092556
0.109433
0.126211
0.142733
0.159422
0.175789
0.192678
0.209311
0.227089
0.242600
0.259467
0.275944
0.292600
0.309156
0.327000
0.342522
0.359289
0.375800
0.392678
0.409244
0.425944
0.442444
0.460578
0.475700
0.492478
0.509156
0.525956
0.544689
0.559278
0.576722
0.592378
0.609622
0.625889
0.642556
0.659444
0.675811
0.693111
0.709289
0.725922
0.742556
0.759189
0.775822
0.792456
0.809244
0.825856
0.842800
0.859144
0.875789
0.892622
0.909133
0.925789
0.942689
0.959278
0.975767
0.992733
1.009256
1.025778
1.042600
1.059200
1.075800
1.092644
1.112589
1.126178
1.142567
1.159156
1.175911
1.193044
1.209744
1.226267
1.242900
1.259533
1.281200
1.331933
1.334556
1.342767
1.359600
1.377011
1.393278
1.409922
1.426567
1.443511
1.459678
1.476178
1.492678
1.509544
1.526411
1.542878
1.559467
1.576211
1.592533
1.609889
1.626056
1.642567
1.659367
1.676167
1.692800
1.709433
1.726367
1.743300
1.759644
1.776556
1.793267
1.811133
1.825933
1.842889
1.859844
1.876256
1.893011
1.909878
1.926244
1.942878
1.960556
1.976367
1.992778
2.009633
2.026989
2.042756
2.059656
2.076178
2.092833
2.109367
2.126967
2.142778
2.159867
2.176144
2.192956
2.209767
2.226189
2.242889
2.259467
2.276711
2.292856
2.309600
2.326089
2.342900
2.359522
2.376144
2.392978
2.409400
2.426256
2.442933
2.459611
2.476289
2.492667
2.509489
2.526311
2.542756
2.559444
2.575989
2.592700
2.609778
2.626067
2.642356
2.659100
2.676011
2.692644
2.709278
2.726378
2.742922
2.759367
2.776111
2.792733
2.809567
2.826133
2.843111
2.859444
2.876067
2.892967
2.909567
2.925933
2.942578
2.959344
2.975922
2.992667
3.009767
3.026056
3.042944
3.059611
3.076078
3.092756
3.109778
3.126156
3.142822
3.159489
3.176156
3.192711
3.209456
3.226100
3.243000
3.259644
3.276167
3.292922
3.309444
3.326289
3.345111
3.359600
3.376067
3.392533
3.409744
3.426089
3.442789
3.459300
3.476022
3.492744
3.509467
3.526189
3.542556
3.559244
3.575933
3.592622
3.609311
3.626344
3.642800
3.659256
3.675989
3.692567
3.709256
3.725944
3.742633
3.759189
3.775922
3.792656
3.809389
3.825822
3.842600
3.859378
3.875978
3.892733
3.909311
3.926233
3.942911
3.959589
3.976267
3.992567
4.009811
4.026233
4.042800
4.059589
4.076111
4.092767
4.109589
4.126278
4.142711
4.159544
4.176244
4.192556
4.209200
4.225844
4.242800
4.259289
4.276033
4.293878
4.309322
4.326089
4.342856
4.359622
4.376222
4.392822
4.409422
4.425844
4.442478
4.460211
4.476467
4.493033
4.509600
4.526444
4.542600
4.559467
4.576044
4.592622
4.609522
4.626422
4.642933
4.659444
4.677289
4.692856
4.709522
4.726189
4.743200
4.759622
4.776044
4.793422
4.809578
4.826067
4.842556
4.859300
4.876044
4.892789
4.909667
4.925911
4.944589
4.959178
4.977189
4.992533
5.009467
5.026111
5.043522
5.059578
5.076289
5.093522
5.110022
5.126522
5.143167
5.159211
5.175967
5.192967
5.210111
5.226078
5.242989
5.259500
5.276189
5.292878
5.309689
5.326356
5.343900
5.359756
5.376389
5.393022
5.409789
5.426556
5.442733
5.459289
5.476067
5.492700
5.509644
5.526356
5.543278
5.559522
5.576322
5.593122
5.609600
5.626078
5.642722
5.660089
5.676456
5.692567
5.709378
5.726022
5.742667
5.759178
5.776333
5.793178
5.810133
5.828178
5.843356
5.859622
5.875889
5.892422
5.909922
5.926633
