0.000000
0.014089
0.029356
0.049189
0.061144
0.080844
0.088656
0.105722
0.130956
0.137367
0.155378
0.170622
0.188133
0.204100
0.220767
0.237333
0.254056
0.270778
0.287667
0.304300
0.321856
0.337811
0.354333
0.371078
0.387611
0.404144
0.420678
0.437700
0.454111
0.470767
0.487422
0.504878
0.521178
0.537744
0.554311
0.571111
0.589222
0.604344
0.621089
0.637833
0.654267
0.670856
0.687556
0.704400
0.721056
0.738111
0.754356
0.771200
0.787700
0.804000
0.822200
0.837600
0.854256
0.870911
0.887567
0.904533
0.921500
0.938000
0.955367
0.971667
0.987067
1.003844
1.021011
1.037189
1.054533
1.070489
1.087444
1.104733
1.121011
1.138578
1.154222
1.171600
1.187722
1.204556
1.221389
1.237944
1.254500
1.271256
1.288444
1.305122
1.321800
1.338311
1.354967
1.371078
1.390678
1.405322
1.421489
1.437878
1.454378
1.470733
1.487333
1.504144
1.520811
1.537322
1.554033
1.570744
1.587100
1.604078
1.620411
1.637178
1.654133
1.670633
1.687356
1.704078
1.720667
1.737256
1.753989
1.770722
1.787122
1.804267
1.821789
1.837700
1.854644
1.870967
1.887444
1.904422
1.921400
1.937944
1.954222
1.970822
1.987422
2.004144
2.020867
2.037311
2.054111
2.070733
2.087500
2.103933
2.120822
2.137356
2.153889
2.170644
2.187400
2.205222
2.220644
2.237544
2.253967
2.270911
2.287633
2.304089
2.320844
2.337456
2.354389
2.371322
2.389578
2.404744
2.421322
2.437900
2.454722
2.471244
2.487889
2.504533
2.521400
2.537722
2.554589
2.571456
2.587922
2.604622
2.621322
2.637811
2.656522
2.671100
2.687778
2.704456
2.721133
2.737644
2.754411
2.771178
2.787578
2.803978
2.820644
2.837311
2.854222
2.870600
2.887211
2.904022
2.921122
2.937633
2.954278
2.971033
2.987522
3.004122
3.021256
3.037744
3.054233
3.070722
3.087544
3.107656
3.120667
3.137578
3.153956
3.170622
3.187289
3.203956
3.220933
3.237489
3.254422
3.271011
3.287600
3.304011
3.320789
3.337567
3.354211
3.370689
3.387289
3.403889
3.420933
3.437467
3.454000
3.470533
3.487478
3.503978
3.521133
3.537511
3.554044
3.570744
3.587278
3.603933
3.620756
3.637244
3.653944
3.670944
3.687611
3.704278
3.720944
3.737500
3.754344
3.770911
3.787478
3.804233
3.820989
3.837333
3.854522
3.870711
3.887289
3.904044
3.920800
3.937300
3.953967
3.970633
3.987678
4.004244
4.020811
4.037589
4.054367
4.071000
4.087889
4.104267
4.123267
4.138633
4.154411
4.170789
4.187411
4.204144
4.220711
4.237278
4.254189
4.270811
4.287267
4.304011
4.320922
4.337422
4.354289
4.370833
4.388844
4.404200
4.420722
4.437133
4.453878
4.470622
4.487367
4.503844
4.520789
4.537089
4.553878
4.570667
4.587278
4.604144
4.620611
4.637411
4.653967
4.670967
4.687289
4.704078
4.721122
4.737589
4.754178
4.770767
4.787533
4.804167
4.820800
4.837300
4.854033
4.870767
4.888022
4.904122
4.920611
