0.000000
0.012911
0.027567
0.046711
0.059322
0.071933
0.088656
0.104156
0.120178
0.136833
0.153933
0.169989
0.186456
0.203789
0.219867
0.237744
0.253567
0.269767
0.286667
0.303322
0.320378
0.336822
0.353722
0.370011
0.386933
0.403278
0.419778
0.436500
0.453222
0.469944
0.486844
0.503744
0.520133
0.536522
0.553900
0.570356
0.586644
0.603289
0.619833
0.636733
0.653233
0.669733
0.686444
0.703156
0.719711
0.736556
0.753144
0.769922
0.786489
0.803189
0.819744
0.836300
0.853200
0.869856
0.886511
0.903167
0.919822
0.936911
0.953433
0.969956
0.986622
1.003289
1.019956
1.036778
1.053222
1.069878
1.086733
1.103289
1.120100
1.136489
1.153178
1.169867
1.186556
1.203244
1.219933
1.236478
1.253022
1.269978
1.286600
1.303222
1.319844
1.336467
1.353089
1.370311
1.387000
1.403211
1.419933
1.436411
1.453500
1.470000
1.486744
1.503300
1.520344
1.536433
1.553144
1.570333
1.587178
1.603300
1.620567
1.636433
1.653433
1.670567
1.686578
1.703178
1.719778
1.736378
1.752978
1.769578
1.786344
1.802956
1.820944
1.836522
1.852989
1.869622
1.886411
1.903200
1.919811
1.936422
1.953600
1.970133
1.986222
2.003078
2.019811
2.036544
2.053533
2.069811
2.086800
2.103489
2.119811
2.136422
2.153244
2.169933
2.186300
2.203078
2.219600
2.236567
2.252911
2.269867
2.286700
2.303122
2.320044
2.336833
2.353456
2.369722
2.386422
2.402989
2.419900
2.436622
2.452967
2.469800
2.486633
2.502878
2.519633
2.536389
2.553144
2.570089
2.586822
2.602989
2.619822
2.636656
2.653278
2.670456
2.686400
2.703422
2.719789
2.736522
2.753256
2.769811
2.786556
2.803111
2.820033
2.836411
2.853589
2.870289
2.886756
2.903222
2.919878
2.936533
2.953189
2.970033
2.986878
3.003311
3.020078
3.036844
3.053611
3.069978
3.086678
3.103278
3.120200
3.136589
3.153233
3.170033
3.186578
3.203122
3.219789
3.236789
3.253500
3.270011
3.286667
3.303167
3.319889
3.336456
3.353522
3.369889
3.386611
3.403333
3.419733
3.436456
3.453178
3.469900
3.486622
3.503200
3.520044
3.536367
3.553233
3.569911
3.586589
3.603100
3.620000
3.637056
3.653244
3.669911
3.686578
3.703244
3.719911
3.736867
3.753322
3.769967
3.786611
3.803033
3.819822
3.836611
3.853189
3.869978
3.886578
3.903178
3.920000
3.936678
3.953356
3.969889
3.986722
4.003556
4.020022
4.036878
4.053133
4.069889
4.086456
4.103022
4.120122
4.137222
4.153833
4.170711
4.187311
4.203300
4.219944
4.236411
4.253056
4.269978
4.286644
4.303100
4.320156
4.336611
4.353067
4.369833
4.386600
4.403367
4.419778
4.436444
4.452878
4.469722
4.486411
4.503100
4.519789
4.536333
4.553111
4.569711
4.586311
4.602911
4.619867
4.636589
4.652922
4.669689
4.686311
4.702933
4.719422
4.736189
4.752956
4.769722
4.786356
4.802989
4.819622
4.836367
4.853011
4.870011
4.886378
4.902978
4.919689
4.936400
4.953111
4.969822
4.986533
5.008578
5.020544
5.036944
5.053211
5.070378
5.090056
5.103256
5.119978
5.136700
5.153178
5.169656
5.186578
5.203267
5.219956
5.237022
5.253700
5.270200
5.286700
5.303311
5.320489
5.337033
5.353367
5.369844
5.386489
5.403467
5.419767
5.436300
5.453211
5.470289
5.486911
5.503011
5.520133
5.536589
5.553444
5.569778
5.586789
5.603289
5.620033
5.636778
5.653400
5.670022
5.686344
5.703011
5.719678
5.736344
5.753011
5.769678
5.786456
5.803122
5.819789
5.836289
5.852933
5.869878
5.886456
5.903244
5.919844
5.936300
