0.000000
0.015122
0.022933
0.037978
0.054011
0.071044
0.080589
0.097744
0.113933
0.130644
0.147200
0.163889
0.180578
0.198311
0.230900
0.245689
0.255300
0.263922
0.281022
0.297867
0.314378
0.331189
0.348000
0.364056
0.380700
0.397678
0.414411
0.430833
0.448300
0.464267
0.480722
0.497300
0.513878
0.530600
0.547444
0.564289
0.581133
0.597444
0.614033
0.630400
0.647456
0.663822
0.682178
0.697089
0.714111
0.731133
0.747456
0.764133
0.780611
0.798578
0.814256
0.830478
0.847500
0.864522
0.881100
0.897967
0.914244
0.930711
0.947322
0.964211
0.980722
0.997411
1.014267
1.030811
1.047356
1.064333
1.081100
1.098056
1.114167
1.130911
1.147656
1.164533
1.181011
1.197822
1.214533
1.231244
1.247511
1.264122
1.280878
1.297456
1.313889
1.330944
1.347600
1.364256
1.380722
1.397322
1.414033
1.430744
1.447456
1.464167
1.480878
1.497589
1.514111
1.530633
1.548144
1.564211
1.580833
1.597278
1.614111
1.630767
1.647422
1.664078
1.680733
1.697256
1.713778
1.730878
1.747367
1.764144
1.780711
1.797533
1.813967
1.830622
1.847278
1.864244
1.880878
1.897800
1.914022
1.931256
1.947378
1.964033
1.980689
1.997522
2.014111
2.030500
2.047256
2.064011
2.080644
2.097467
2.114289
2.130767
2.147400
2.164033
2.180833
2.197267
2.214244
2.230844
2.247589
2.264333
2.281078
2.297822
2.314567
2.331133
2.347700
2.364267
2.380833
2.397633
2.414144
2.430656
2.447400
2.464344
2.480822
2.497300
2.513989
2.531033
2.547333
2.563900
2.597400
2.601244
2.614011
2.630744
2.647478
2.664211
2.680778
2.697578
2.714267
2.730556
2.747656
2.764156
2.780656
2.797156
2.814244
2.830956
2.847467
2.864133
2.880800
2.897578
2.914067
2.930700
2.947333
2.963833
2.980511
2.997189
3.013867
3.030544
3.047222
3.063900
3.080578
3.097256
3.114133
3.130522
3.147211
3.164033
3.180856
3.197278
3.214244
3.230778
3.247311
3.264033
3.280533
3.297611
3.313756
3.330567
3.347267
3.364178
3.380567
3.397367
3.413711
3.430467
3.447222
3.464222
3.481222
3.498222
3.514033
3.531067
3.547644
3.564222
3.580800
3.597378
3.613844
3.630544
3.647244
3.667422
3.682333
3.697433
3.714000
3.731178
3.747611
3.768556
3.780789
3.797467
3.813967
3.830467
3.847267
3.863733
3.880489
3.897411
3.914000
3.930467
3.947167
3.964067
3.980544
3.997200
4.013856
4.030511
4.047500
4.063822
4.080400
4.098222
4.114022
4.131244
4.147311
4.163911
4.180933
4.197356
4.214156
4.230956
4.247756
4.264278
4.280800
4.297322
4.314100
4.330878
4.347389
4.364111
4.380833
4.397422
4.414144
4.430867
4.447444
4.464211
4.480644
4.497267
4.514322
4.530622
4.547478
4.564044
4.580811
4.597578
4.614344
4.631111
4.648211
4.664400
4.681311
4.697689
4.715000
4.731056
4.747644
4.764111
4.783156
4.797500
4.814356
4.830800
4.847411
4.864611
4.881000
4.897522
4.914044
4.930756
