0.000000
0.016511
0.028000
0.041389
0.058433
0.074633
0.084478
0.101056
0.117633
0.134411
0.151189
0.167744
0.184489
0.201056
0.218033
0.234311
0.251222
0.267733
0.284389
0.301156
0.317700
0.334244
0.352767
0.367578
0.385278
0.401500
0.418233
0.435300
0.451044
0.468133
0.484611
0.501089
0.517567
0.535611
0.551222
0.567922
0.584622
0.601444
0.617800
0.634544
0.651289
0.667911
0.684911
0.702556
0.717944
0.734711
0.751478
0.768056
0.784633
0.801356
0.817900
0.834444
0.851667
0.867689
0.884322
0.901122
0.917678
0.934611
0.951544
0.968144
0.984633
1.001256
1.017878
1.034500
1.051900
1.068067
1.086844
1.101289
1.118478
1.135122
1.152422
1.168489
1.184789
1.201589
1.218678
1.235178
1.251511
1.267978
1.284733
1.301489
1.318044
1.335111
1.351711
1.368311
1.384911
1.400889
1.417622
1.434511
1.451178
1.467844
1.484333
1.501089
1.517578
1.534633
1.551289
1.567578
1.584244
1.600911
1.617578
1.634244
1.650911
1.670300
1.684222
1.700889
1.717556
1.734611
1.750867
1.767633
1.784100
1.800933
1.817578
1.834789
1.851244
1.868156
1.884533
1.900911
1.917678
1.934211
1.951033
1.967856
1.984578
2.001167
2.017756
2.034344
2.051256
2.068344
2.084811
2.101278
2.117900
2.134356
2.151056
2.167644
2.184233
2.201056
2.217767
2.234211
2.251444
2.267756
2.284567
2.301178
2.318000
2.334433
2.351389
2.367644
2.384333
2.401022
2.417711
2.434400
2.451289
2.467622
2.484267
2.500911
2.517722
2.534156
2.550756
2.567356
2.584167
2.600833
2.617811
2.634467
2.651122
2.667922
2.684489
2.701189
2.717633
2.734078
2.751000
2.767922
2.784300
2.800956
2.817611
2.834267
2.850922
2.867578
2.884233
2.901133
2.917567
2.934211
2.950856
2.967744
2.984633
3.001133
3.017633
3.034133
3.050900
3.067667
3.084278
3.100889
3.117500
3.134278
3.150822
3.167533
3.184244
3.200956
3.217811
3.234211
3.250800
3.267856
3.284356
3.301078
3.317800
3.334311
3.350822
3.367500
3.384178
3.400856
3.417789
3.434722
3.451367
3.468011
3.484367
3.501567
3.518111
3.534656
3.551522
3.568556
3.585456
3.601289
3.618044
3.634800
3.651556
3.667811
3.684644
3.701478
3.717989
3.734500
3.751156
3.768144
3.784689
3.801433
3.818033
3.834633
3.851100
3.867911
3.884622
3.901067
3.917778
3.934267
3.950967
3.967667
3.984256
4.000844
4.017556
4.034167
4.050978
4.068189
4.084333
4.101067
4.117800
4.134278
4.150989
4.167700
4.184156
4.201144
4.217633
4.234256
4.250878
4.267500
4.284244
4.300878
4.317689
4.334278
4.350867
4.367567
4.384167
4.400767
4.417600
4.434200
4.450800
4.467400
4.484000
4.500600
4.517467
4.534200
4.550933
4.567511
4.584700
4.601267
4.618156
4.634622
4.651244
4.667867
4.684256
4.701144
4.717656
4.734167
4.751311
4.767944
4.784378
4.801456
4.817978
4.834311
4.851044
4.868167
4.884500
4.901189
4.917878
