0.000000
0.016433
0.034300
0.045489
0.065367
0.079922
0.089278
0.104622
0.121400
0.138422
0.155322
0.180944
0.191244
0.204367
0.221722
0.238856
0.254800
0.271300
0.288678
0.305411
0.322144
0.338022
0.354478
0.372267
0.388211
0.404667
0.421556
0.438178
0.455000
0.471622
0.487667
0.507022
0.521711
0.538478
0.555089
0.571911
0.588311
0.604711
0.621478
0.640167
0.658300
0.671222
0.688256
0.705011
0.721167
0.738000
0.755189
0.771544
0.788311
0.804633
0.821922
0.841011
0.855144
0.871800
0.888167
0.907311
0.922744
0.940333
0.954600
0.971544
0.989000
1.005378
1.022789
1.040667
1.054600
1.073311
1.087933
1.104967
1.121156
1.140456
1.154833
1.171400
1.187967
1.204533
1.221411
1.240067
1.254811
1.271267
1.288100
1.304522
1.321600
1.339978
1.354889
1.371711
1.388433
1.404844
1.421622
1.439956
1.456489
1.471444
1.487956
1.505800
1.521644
1.538400
1.554878
1.571756
1.588867
1.605233
1.621500
1.639822
1.656267
1.671567
1.688411
1.705256
1.722767
1.738744
1.755033
1.771844
1.788344
1.805078
1.821811
1.838544
1.855278
1.871600
1.888311
1.905356
1.922011
1.941056
1.954733
1.971400
1.988433
2.005233
2.021044
2.039633
2.056844
2.071422
2.088211
2.106044
2.121511
2.140211
2.155200
2.171878
2.188167
2.205089
2.221567
2.240278
2.255000
2.271122
2.287744
3.821556
3.838100
3.854644
3.872078
3.888789
3.904778
3.921956
