0.000000
0.014944
0.029200
0.043456
0.065844
0.076822
0.099844
0.102333
0.119989
0.145189
0.152122
0.168922
0.185311
0.202478
0.219067
0.235656
0.252489
0.268911
0.286900
0.301578
0.318556
0.334933
0.352000
0.368656
0.385978
0.401933
0.418711
1.735278
1.751789
1.768300
1.785111
1.802233
1.835022
1.852422
1.868078
1.885389
1.918944
1.935056
1.951678
1.968478
1.985022
2.018644
2.035211
2.052044
2.069811
2.085389
2.101922
2.118456
2.152233
2.168656
2.186544
2.201744
2.218444
2.235300
2.251989
2.268900
2.285256
2.301856
2.318178
2.335000
2.352022
2.368378
2.388567
2.402700
2.419100
2.435933
2.452267
2.468500
2.485578
2.502056
3.918811
3.935833
