0.000000
0.011478
0.033822
0.057322
0.067967
0.086222
0.097433
0.121267
0.128311
0.143889
0.160589
0.177289
0.193778
0.211033
0.227111
0.243922
0.260533
0.277144
0.293756
0.310556
0.327356
0.345256
0.360589
0.377044
0.393833
0.410622
0.427900
0.444022
0.460700
0.477222
0.494111
0.510589
0.527067
0.543856
0.560522
0.577189
0.593856
0.610911
0.627000
0.644089
0.660489
0.677167
0.695556
0.710522
0.727300
0.743967
0.760633
0.778656
0.793856
0.810944
0.827422
2.344478
2.361367
2.377811
2.394478
2.411044
2.427756
2.444244
