0.000000
0.013511
0.030278
0.048878
0.066600
0.083078
0.091933
0.114389
0.136056
0.139989
0.155878
0.173844
0.189744
0.206711
0.222533
0.239400
0.255900
0.272722
0.289167
0.306000
0.322944
0.340011
0.356867
0.373722
0.391300
0.406256
0.422411
0.441144
0.456033
0.473078
0.489900
0.506289
0.523000
0.539200
0.555944
0.572689
0.591578
0.607011
0.622667
0.639222
0.655622
0.672278
0.690256
0.705778
0.722278
0.739311
0.755744
0.773956
0.788989
0.805622
0.823867
0.840011
0.856056
0.872844
0.889400
0.906211
0.923556
0.939300
0.956044
0.972578
0.989756
1.005933
1.022544
1.040222
1.056422
1.073411
1.089467
1.106200
1.123189
1.139933
1.156289
1.172644
1.190578
1.206356
1.222900
1.239944
1.256267
1.273100
1.289400
1.307789
1.323067
1.339800
1.356533
1.373267
1.389667
1.406067
1.423189
1.440022
1.457256
1.473044
1.489733
1.506422
1.523111
1.539589
1.555767
1.574022
1.589711
1.606267
1.624189
1.640189
1.656300
1.673133
1.690089
1.707044
1.723722
1.739389
1.757122
1.772644
1.789267
1.806400
1.822467
1.839567
1.856300
1.872633
1.890033
1.906867
1.922789
1.939433
1.957078
1.972689
1.990833
2.006000
2.022389
2.040056
2.057389
2.072478
2.089656
2.105978
2.122811
2.140211
2.155922
2.173022
2.189533
2.206278
2.222611
2.240844
2.256167
2.272900
2.289633
2.306367
2.322822
2.339433
2.356044
2.373178
2.389756
2.405889
2.422778
2.440400
2.456411
2.472422
2.489144
2.505678
2.522211
2.539033
2.555456
2.572367
2.589444
2.605589
2.622533
2.639089
2.655644
2.672200
2.690211
2.706011
2.722811
2.739289
2.755900
2.772700
2.789500
2.805978
2.822622
2.839800
2.856244
2.873967
2.889544
2.906178
2.923478
2.939433
2.956233
2.972767
2.989300
3.005967
3.023033
3.039711
3.056244
3.075400
3.089222
3.105800
3.122567
3.139333
3.156100
3.172367
3.188922
3.205744
3.222444
3.239567
3.255900
3.272856
3.289344
3.305644
3.322222
3.339322
3.355489
3.372856
3.389456
3.406200
3.422744
3.439289
3.456144
3.472500
3.489578
3.505767
3.522811
3.539200
3.555589
