0.000000
0.017822
0.039044
0.055944
0.071978
0.089011
0.095578
0.113589
0.129511
0.145433
0.163956
0.188522
0.194789
0.212211
0.228400
0.246489
0.262578
0.278911
0.295244
0.313244
0.329189
0.345133
0.362178
0.378233
0.395422
0.413178
0.429544
0.445522
0.461856
0.478189
0.494967
0.511567
0.528844
0.548567
0.564011
0.579456
0.595656
0.613556
0.628678
0.645467
0.661767
0.678356
1.712811
1.729756
1.745644
1.762244
1.778456
1.796211
1.811944
1.828356
1.844922
1.879122
1.896078
1.912822
1.928800
1.945533
1.963056
1.978422
1.994944
2.011622
2.028300
2.044978
2.062744
2.078556
2.094967
2.112256
2.129133
2.145278
2.161889
2.178267
2.194878
2.212744
2.229822
2.244900
2.261478
2.278422
2.295111
2.312167
2.328300
2.345711
2.361744
2.378333
2.395444
2.411500
2.428267
2.445611
2.462622
2.478500
