0.000000
0.013122
0.027844
0.042567
0.058467
0.079500
0.091989
0.113833
0.120811
0.144367
0.150711
0.167989
0.184000
0.200478
1.719944
1.734022
1.752667
1.767356
1.784389
1.801878
1.820633
1.835556
1.850744
1.867300
1.884067
1.900833
1.920633
1.934378
1.952056
1.967678
1.984200
2.001289
2.022622
2.034300
2.051922
2.068622
2.084989
2.101789
2.120222
2.134222
2.151033
2.168011
2.184478
2.200944
2.220067
2.234300
2.251044
2.267667
2.284289
2.301411
2.321222
2.334211
2.350822
2.367911
2.385000
2.400911
2.419911
2.434033
2.450678
2.467900
2.486000
3.721678
3.734978
3.751611
3.768356
3.785267
3.801600
3.817633
3.834511
3.851022
3.867756
3.884822
3.901300
