0.000000
0.012200
0.035900
0.057544
0.069000
0.087267
0.093422
0.110800
0.128522
0.144867
0.173656
0.176744
0.195222
0.210256
0.228933
0.243544
0.259933
0.276911
0.295433
0.311644
0.327856
0.344767
0.360244
0.377878
0.395867
0.411033
0.426733
0.443222
0.460067
0.477300
0.494967
0.511167
0.527267
0.543944
0.560978
0.577300
0.597544
0.611589
0.628278
0.644033
0.660967
0.677589
0.695033
1.727133
1.744133
1.760678
1.777222
1.793767
1.813144
1.827078
1.844378
1.860789
1.879200
1.893789
1.912611
1.927322
1.943978
1.961300
1.980233
1.996744
2.010400
2.029644
2.043689
2.060467
2.078000
2.094822
2.110278
2.126956
2.144556
2.160244
2.177500
2.196167
2.211100
2.227033
2.243411
2.261944
2.278144
2.293411
2.310267
2.327833
2.343689
2.360844
2.376689
2.397078
2.412033
2.426989
2.443878
2.460422
2.477711
2.495000
