0.000000
0.016789
0.028478
0.052289
0.068622
0.081000
0.094033
0.104756
0.120456
0.136467
0.153000
0.175033
0.186600
0.203822
0.220078
0.237811
0.253444
0.270389
0.286422
0.305589
0.320544
0.336456
0.354633
0.372711
0.386722
0.403378
0.419700
0.438467
0.453889
0.471867
0.487422
0.503978
0.520133
0.536944
0.554367
0.573056
0.587733
0.603544
0.619822
0.638122
0.653556
0.672567
0.688611
0.703389
0.719800
0.756233
0.775833
0.787444
0.803844
0.820244
0.836978
0.853589
0.871422
0.887644
0.903478
0.920189
0.937222
0.953167
0.972967
0.986533
1.003444
1.021400
1.036956
1.053100
1.070978
1.087989
1.104000
1.120678
1.137211
1.154178
1.171000
1.186656
1.203500
1.220222
1.240856
1.253056
1.270789
1.286756
1.303544
1.320044
1.336711
1.353378
1.372567
1.386544
1.403211
1.420633
1.436867
1.453689
1.472056
1.486300
1.503211
1.519622
1.536578
1.553311
1.574556
1.587578
1.603056
1.619689
1.637444
1.653189
1.671367
1.686956
1.703467
1.719978
1.736489
1.753233
1.773756
1.788700
1.803300
1.839489
1.854667
1.869844
1.887144
1.903500
1.919722
1.952878
1.973144
2.003122
2.022800
2.041578
2.070778
2.088300
2.104422
2.119933
2.136422
2.172922
2.187022
2.203944
2.220867
2.241556
2.254622
2.274133
2.286533
2.305444
2.321089
2.336844
2.354089
2.370544
2.388267
2.404078
2.420122
2.436644
2.455178
2.473578
2.486389
2.503933
2.519944
3.586567
3.603311
3.619711
3.637244
3.653111
3.672411
3.687444
