0.000000
0.016511
0.028067
0.044111
0.065256
0.077556
0.095600
0.105611
0.118400
0.136367
0.154867
0.183678
0.186000
0.207322
0.224233
0.235967
0.251967
0.268656
0.285233
0.306489
0.321800
0.334778
0.351667
0.368289
0.385078
0.401700
0.418322
0.435122
0.451667
0.468867
0.486444
0.506244
0.518956
0.535111
0.551611
0.568656
0.586622
0.602522
0.618856
0.635622
0.653144
0.668778
0.685344
0.702233
0.718933
0.735633
0.751622
0.768722
0.786111
0.802022
0.818333
0.835044
0.851756
0.868467
0.885178
0.901889
0.918600
0.935700
0.951500
0.968389
0.985089
1.002200
1.736344
1.751689
1.770544
1.787189
1.801878
1.818289
1.837367
1.852367
1.870033
1.885467
1.902211
1.919733
1.938467
1.953011
1.985367
2.002356
2.019111
2.036278
2.052278
2.068511
2.085778
2.102033
2.120467
2.135656
2.154544
2.178422
2.200511
2.251911
2.268433
2.285433
2.302211
2.335389
2.353067
2.368600
2.385578
2.402144
2.420789
2.438422
2.454500
2.469100
2.486167
2.503111
2.536500
2.552367
2.572100
2.585778
2.602356
2.618933
2.637011
