0.000000
0.011022
0.025789
0.943522
0.953622
0.958889
0.975833
0.993244
1.009444
1.025644
1.042133
1.058811
1.075389
1.092200
1.109600
1.125378
1.142367
1.158656
1.175389
1.191989
1.208756
1.225256
1.242133
1.258644
1.275156
1.291867
1.308578
1.325289
1.342000
1.358711
1.375278
1.392100
1.408922
1.425889
1.444911
1.458811
1.475811
1.492522
1.508889
1.525500
1.542444
1.558956
1.575767
1.592344
1.608922
1.625500
1.642267
1.660667
1.675667
1.692256
1.708711
1.725322
1.741933
1.758900
1.775667
1.792722
1.808822
1.825656
1.842489
1.859000
1.875989
1.892556
1.909289
1.926144
1.942089
1.958833
1.975578
1.992478
2.008756
2.025600
2.042344
2.058956
2.075567
2.092433
2.108778
2.125522
2.142267
2.159300
2.175478
2.192044
2.208611
2.225178
2.242056
2.258578
2.275100
2.291944
2.308389
2.325178
2.341822
2.358633
2.375444
2.392067
2.409256
2.425589
2.442144
2.458700
2.475633
2.492211
2.508533
2.525244
2.541811
2.559000
2.575922
2.591644
2.608500
2.625100
2.641833
2.658389
2.675144
2.692356
2.708267
2.725100
2.741722
2.758644
2.775467
2.792178
2.808711
2.827767
2.842744
2.860911
2.875867
2.892500
2.910578
2.925522
2.942922
2.959589
2.977356
2.992467
3.008856
3.025467
3.041944
3.058656
3.075367
3.092078
3.108467
3.125644
3.142300
3.158733
3.175311
3.192000
3.209444
3.225489
3.242222
3.258789
3.275356
3.292122
3.309578
3.325722
3.342233
3.359022
3.375567
3.392578
3.409244
3.425644
3.442189
3.459667
3.475844
3.492278
3.508711
3.525144
3.542178
3.558656
3.575278
3.591900
3.608644
3.625289
3.641933
3.658578
3.675344
3.693078
3.708867
3.725744
3.742344
3.760333
3.775811
3.792500
3.808911
3.825511
3.842111
3.858711
