0.000000
0.703556
0.718967
0.735533
0.752233
0.768933
0.785522
0.803100
1.752178
1.768411
1.784878
1.803500
1.818222
1.836700
1.852711
1.869289
1.901833
1.918756
1.935411
1.952678
1.969256
1.991511
2.007478
2.026611
2.039856
2.071700
2.085989
2.102478
2.136111
2.153244
2.169189
2.186400
2.202833
2.219111
2.235389
2.253122
2.270622
2.287222
2.303467
2.318778
2.335967
2.355333
2.369011
2.385444
2.402222
2.423133
2.435489
2.452311
2.468722
2.485300
2.501878
2.518722
2.671922
2.686244
2.702078
2.719033
2.735411
2.751789
2.768622
2.785222
2.802411
2.818933
2.835456
2.853233
2.870333
2.885689
2.902244
2.919356
2.935722
2.956433
2.974500
2.989767
3.009244
3.023944
3.038444
3.069378
3.085622
3.669089
3.684844
3.702311
3.719189
3.735922
3.752100
3.768578
4.002411
