0.000000
0.025344
0.037411
0.051889
0.069067
0.085933
0.102156
0.118633
0.137489
0.153322
0.168689
0.185211
0.202300
0.218744
0.236722
0.252078
0.268533
0.285656
0.302322
0.320922
0.340044
0.352856
0.369500
0.385722
0.402278
0.419044
0.437133
0.452367
0.468767
0.485467
0.502167
0.518767
0.536333
0.551967
0.569111
0.585800
0.602011
0.618922
0.637267
0.652856
0.668667
0.686478
0.702244
0.718822
0.737367
0.751767
0.768367
0.785444
0.802789
0.819267
0.836544
0.852156
0.868989
0.885822
0.902289
0.918756
0.939044
0.952300
0.969611
0.985656
1.002678
1.020067
1.036311
1.052033
1.068967
1.085522
1.102078
1.119044
1.136967
1.151833
1.168611
1.185567
1.202733
1.219200
1.237133
1.252500
1.269156
1.285044
1.301822
1.318600
1.335378
1.351756
1.368900
1.385233
1.402689
1.418544
1.436878
1.452622
1.469767
1.485633
1.502322
1.519200
1.535533
1.552133
1.568856
1.585578
1.602967
1.619278
1.639533
1.652122
1.668567
1.685378
1.719011
1.734978
1.751778
1.768422
1.785633
1.801600
1.818322
1.835044
1.851767
1.868489
1.885056
1.901867
1.918467
1.935522
1.952111
1.968700
1.985289
2.002133
2.018978
2.035567
2.052056
2.068544
2.085033
2.102356
2.118456
2.135556
2.152244
2.168822
2.185256
2.201689
2.218433
2.234978
2.251667
2.268356
2.285533
2.301967
2.318522
2.337989
2.351811
2.368689
2.385333
2.401978
2.418744
2.435511
2.452278
2.468833
2.485511
2.502333
2.520422
2.534978
2.553044
2.568144
2.584933
2.601556
2.618311
2.635522
2.651822
2.668344
2.684867
2.701600
2.718544
2.735011
2.751878
2.768556
2.784989
2.801700
2.818233
2.835511
2.851600
2.869511
2.886056
2.902300
2.918222
2.937533
2.951789
2.968489
2.985189
3.002567
3.018822
3.036011
3.052700
3.068956
3.085211
3.101978
3.119111
3.138856
3.153233
3.169178
3.186078
3.202978
3.219878
3.238233
3.251789
3.268700
3.285178
3.301989
3.318400
3.338522
3.351889
3.368333
3.385244
3.401989
3.419767
3.435378
3.451900
3.469000
3.485589
3.502178
3.519011
3.538267
3.552211
3.568489
3.585289
3.601644
3.618000
3.636889
3.651478
3.668422
3.684822
3.701544
3.718400
3.734967
3.751533
3.768256
3.785256
3.803089
3.818789
3.838233
3.853267
3.869489
3.885400
3.901967
