0.000000
0.124733
0.140211
0.159056
0.173789
0.190789
0.207244
0.223700
0.240367
0.260378
0.273644
0.290300
0.307078
0.324522
0.340300
0.361367
0.373567
0.390456
0.407033
0.423611
0.440189
0.460378
0.473311
0.489867
0.506422
0.523367
0.539800
0.556500
0.573522
0.591156
0.606478
0.623344
0.639956
0.659333
0.673489
0.693100
0.706722
0.723078
0.739744
0.756411
0.773078
0.789922
0.806544
0.823433
0.840178
0.860678
0.873322
2.862311
2.873222
2.890400
2.906878
2.923633
2.940389
2.957144
2.973400
2.990289
3.007178
3.024067
3.040389
3.057133
3.073333
3.090422
3.107156
3.127211
3.141511
3.162033
3.173833
3.190233
3.207000
3.223500
3.240000
3.263244
3.279956
3.290289
3.306544
3.323633
3.340400
3.357167
3.373633
3.389667
3.406367
3.423067
3.439767
3.456667
3.473211
3.491400
3.506644
3.523656
3.540367
3.559378
3.573633
3.590678
3.606667
3.623933
3.640278
3.656978
3.673500
3.692256
3.707167
3.723922
3.740356
3.757622
3.773744
3.791833
3.806567
3.823500
3.840333
3.859622
3.873711
3.890533
3.907100
