0.000000
0.306156
0.321678
0.341989
0.355067
0.371378
0.388200
0.405156
1.721589
1.738244
1.755522
1.771589
1.788278
1.806556
1.821600
1.838289
1.855767
1.871822
1.888222
1.905078
1.921400
1.938167
1.954578
1.971689
1.988578
2.005011
2.022189
2.038411
2.055533
2.071556
2.088878
2.104744
2.121978
2.138956
2.155111
2.172867
2.188944
2.205567
2.221756
2.238689
2.255167
2.271822
2.288911
2.304922
2.321800
2.338489
2.355667
2.371411
2.388156
2.404722
2.421956
2.441411
2.455367
2.472244
2.488022
2.505433
2.521556
2.538522
2.555178
2.572078
2.588056
2.604689
2.621822
2.638356
2.655178
2.672144
2.688544
3.289800
3.304711
3.321378
3.338189
3.355000
3.371311
3.387933
3.621711
3.641144
3.654911
3.671633
3.688722
3.705300
3.721878
3.738967
3.754911
3.771533
3.788156
3.805956
3.821700
3.837911
3.854656
3.871800
3.887822
3.904533
