0.000000
0.011233
0.035133
0.053433
0.069178
0.079300
0.096133
0.112322
0.128322
0.145233
0.161778
0.178322
0.194867
0.211611
0.228144
0.244944
0.261944
0.279567
0.295389
0.312000
0.328611
0.345089
1.761978
1.778278
1.794889
1.811611
1.828333
1.844811
1.861767
1.878244
1.911833
1.928244
1.945367
1.962167
1.978400
1.995678
2.011878
2.030278
2.046822
2.061844
2.078278
2.095144
2.128856
2.145322
2.178622
2.195144
2.211822
2.228244
2.244967
2.261589
2.278211
2.295100
2.311711
2.328456
2.345200
2.361611
2.378244
2.395289
2.411678
2.428633
2.445111
2.461767
2.478422
2.495078
2.511733
2.528389
2.545256
3.862156
3.878189
3.895089
3.911989
3.928633
