0.000000
0.009567
0.024256
0.033756
0.046222
0.062700
0.079689
0.096278
0.113022
0.129478
0.146133
0.162789
0.179444
0.196100
0.213367
0.230167
0.246689
0.263211
0.280956
0.296233
0.312889
0.329422
0.346222
0.362922
0.379522
0.396278
0.416044
0.429633
0.446256
0.463644
0.480067
0.496489
0.512789
0.529778
0.546767
0.563267
0.579767
0.596989
0.615711
0.629433
0.646700
0.663200
0.680100
0.696333
0.712900
0.729689
0.746478
0.763433
0.780044
0.796422
0.813878
0.830133
0.848167
0.863478
0.880700
0.897256
0.913356
0.929822
0.947044
0.963078
0.979922
0.996533
1.013678
1.029900
1.047056
1.063178
1.080133
1.096756
1.113689
1.130133
1.146444
1.163489
1.180089
1.196567
1.213478
1.231367
1.246478
1.263378
1.279956
1.296733
1.313511
1.329944
1.346622
1.363022
1.381122
1.396278
1.413011
1.429744
1.446378
1.463167
1.479956
1.496333
1.512711
1.529944
1.546800
1.562922
1.579422
1.596733
1.613578
1.629989
1.646900
1.663200
1.679944
1.696544
1.713144
1.729933
1.746722
1.763944
1.780144
1.796589
1.990344
1.997444
2.013478
2.029833
2.046589
2.063344
2.079833
2.125378
2.131467
2.146422
2.163422
2.179722
2.196511
2.213300
2.229544
2.247111
2.263867
2.280078
2.296400
2.313067
2.329733
2.346522
2.362944
2.379578
2.396211
2.413178
2.429556
2.446189
2.462644
2.493211
2.509667
2.513000
2.532222
2.546033
2.563056
2.580311
2.596200
2.612689
2.629467
2.646422
2.663378
2.680011
2.696644
2.712889
2.729644
2.746244
2.762956
2.779911
2.796456
2.813000
2.829544
2.846256
2.863089
2.879922
2.896433
2.913344
2.929989
2.946756
2.963222
2.979811
2.996400
3.012989
3.029933
3.046878
3.063011
3.079756
3.096500
3.113244
3.129844
3.146933
3.163289
3.179922
3.196400
3.212878
3.229956
3.246578
3.263200
3.279644
3.296300
3.312956
3.329822
3.346367
3.362722
3.379944
3.396422
3.413456
3.429667
3.446733
3.463000
3.479933
3.496589
3.513100
3.529944
3.546600
3.562878
3.580267
3.597656
3.613733
3.629700
3.646411
3.663000
3.679989
3.696400
3.713578
3.729611
3.746456
3.762756
3.779578
3.796267
3.813211
3.829989
3.846311
3.862756
3.879556
3.896689
3.913356
