0.000000
0.010356
0.025556
0.038011
0.204867
0.221178
0.238333
0.254433
0.271400
0.287889
0.304733
0.321311
0.338344
0.354489
0.373256
0.387789
0.405011
0.421533
0.438544
0.454600
0.472867
0.487867
0.504722
0.521422
0.538633
0.554444
0.571056
0.587822
0.604589
0.621356
0.637844
0.654511
0.673744
0.687911
0.704900
0.721367
0.738511
0.755167
0.771667
0.788167
0.804667
0.821300
0.838122
0.854800
0.873667
0.888222
0.904933
0.921644
0.938356
0.954900
0.971444
0.988533
1.005156
1.021489
1.038556
1.055078
1.074422
1.088222
1.105067
1.121478
1.138211
1.154944
1.171900
1.188522
1.205011
1.222056
1.242856
1.255356
1.271578
1.288700
1.304856
1.321256
1.338800
1.355267
1.373244
1.389900
1.406211
1.421522
1.438300
1.454756
1.471544
1.488144
1.504889
1.521256
1.538133
1.555911
1.571122
1.587989
1.604522
1.621056
1.638167
1.654489
1.673144
1.688644
1.704889
1.738944
1.754522
1.771433
1.788344
1.805400
1.821722
1.838889
1.855344
1.873278
1.888022
1.904744
1.921756
1.938222
1.955578
1.971344
1.988311
2.004589
2.021600
2.037989
2.054856
2.073978
2.087900
2.104944
2.121178
2.138100
2.154656
2.171400
2.188144
2.204689
2.221411
2.242867
2.254589
2.271222
2.287856
2.304744
2.321478
2.337889
2.354667
2.371344
2.387856
2.404544
2.421478
2.437889
2.454511
2.472511
2.487667
2.504267
2.521033
2.537800
2.554433
2.571067
2.587811
2.604667
2.621056
2.637978
2.655078
2.673289
2.687900
2.704433
2.720967
2.737711
2.754456
2.771067
2.787678
2.804289
2.821156
2.837822
2.854489
2.871156
2.888078
2.904811
2.921700
2.938389
2.954744
2.971656
2.988400
3.005144
3.021667
3.040689
3.054856
3.071489
3.088122
3.105167
3.121289
3.138133
3.155122
3.171722
3.188578
3.204967
3.221878
3.240578
3.255122
3.271844
3.289156
3.304600
3.321411
3.337722
3.354333
3.371267
3.387567
3.404533
3.421500
3.439556
3.454678
3.471667
3.487911
3.504811
3.521411
3.538011
3.554611
3.571389
3.588011
3.604633
3.621256
3.638278
3.657011
3.671311
3.690367
3.705300
3.722144
3.738822
3.754656
3.771478
3.788300
3.804656
3.821444
3.840511
3.854633
3.871356
3.888767
3.904878
3.921556
