0.000000
0.868133
0.884167
0.900011
0.920378
0.933400
0.950033
0.966667
1.733900
1.750000
1.767256
1.783378
1.800700
1.817400
1.833522
1.850167
1.866811
1.883456
1.899989
1.916867
1.939367
1.950122
1.966944
1.983767
2.000067
2.016678
2.033289
2.050078
2.066556
2.083511
2.100044
2.116578
2.133544
2.150511
2.166811
2.183322
2.199833
2.216678
2.235467
2.249878
2.266600
2.283322
2.300044
2.317389
2.333467
2.350711
2.366722
2.384044
2.400100
2.416711
2.433322
2.450111
2.466800
2.483622
2.500078
2.834533
2.849811
2.866733
2.883022
2.900222
2.917089
2.934111
2.950600
2.967322
2.983678
3.001089
3.018500
3.036244
3.050422
3.066622
3.083356
3.099822
3.116767
3.133533
3.149989
3.166722
3.183789
3.199900
3.235522
3.250011
3.850422
3.866567
3.883100
3.899922
