0.000000
0.848767
0.865000
0.881933
0.898089
0.915078
0.931267
0.947811
0.964756
0.981422
0.998089
1.014600
1.031367
1.048133
1.064678
1.081467
1.098256
1.114656
1.133578
1.148289
1.164622
1.181067
1.197900
1.214378
1.248222
1.733633
1.748100
1.764700
1.781078
1.797711
1.814344
1.831167
1.847633
1.864322
1.881122
1.897922
1.915867
1.931378
1.947889
1.964400
1.981189
1.997611
2.014467
2.031211
2.047667
2.064122
2.081089
2.097733
2.114856
2.131644
2.148433
2.165222
2.181456
2.197578
2.214378
2.230922
2.248178
2.264511
2.281111
2.297878
2.314444
2.331011
2.347922
2.364278
2.381133
2.397567
2.414900
2.431033
2.447744
2.464322
2.481156
2.497833
2.515444
2.531067
2.547722
2.564378
2.581200
2.597833
2.614467
2.631100
2.648200
2.665467
2.681933
2.698400
2.714767
2.731444
2.747811
2.764578
2.781344
2.797922
2.814722
2.831144
2.847833
2.864422
2.881556
2.898033
2.914511
2.931144
2.947778
2.964589
2.981567
2.997811
3.014744
3.031211
3.047956
3.064700
3.081178
3.097944
3.114333
3.131078
3.148311
3.164622
3.181233
3.197967
3.215322
3.231389
3.248078
3.264356
3.281111
3.297622
3.314678
3.331089
3.348367
3.364556
3.381811
3.398011
3.414933
3.431611
3.448289
3.464967
3.481333
3.497700
3.514600
3.531833
3.547789
3.564344
3.581289
3.598111
3.614700
3.631167
3.647978
3.664578
3.681500
3.697789
3.714900
3.732011
3.748133
3.765611
3.781089
3.797778
3.814144
3.831478
3.847867
3.865600
3.881056
3.897767
