0.000000
0.011911
0.528967
0.545100
0.562744
0.578889
0.595800
0.611456
0.628300
0.862400
0.879089
0.895633
0.912067
0.929478
0.946344
0.962511
0.978511
0.995022
1.011533
1.028811
1.045022
1.061533
1.078700
1.095656
1.111833
1.128578
1.145322
1.161756
1.178589
1.195678
1.211744
1.230967
1.245133
1.262144
1.279300
1.295422
1.311544
1.328367
1.345411
1.362133
1.378667
1.395200
1.412467
1.435378
1.445856
1.466056
1.479011
1.516556
1.528756
1.551700
1.583856
1.599811
1.602167
1.622156
1.628267
1.644644
1.661711
1.678567
1.695678
1.712356
1.728856
1.762544
1.779867
1.803456
1.829156
1.845722
1.878556
1.895178
1.912844
1.945289
1.961889
1.996244
2.011989
2.028622
2.046544
2.078922
2.096522
2.111978
2.128578
2.145867
2.161589
2.179578
2.194833
2.229122
2.244978
2.261500
2.278211
2.295656
2.337489
2.346789
2.363978
2.378911
2.395500
2.411967
2.429111
2.448244
2.476211
2.486844
2.495022
2.512767
2.528278
2.544933
2.562811
2.578122
2.595044
2.612722
2.628878
2.646278
2.661989
2.678267
2.695722
2.713056
2.728633
2.746678
2.761711
2.779100
2.795767
2.812244
2.829033
2.845533
2.862178
2.878689
2.895733
2.913422
2.928344
2.946322
2.962822
2.979644
2.995867
3.012089
3.028500
3.046333
3.062467
3.079367
3.096078
3.112678
3.132311
3.145689
3.162767
3.179278
3.195789
3.212456
3.232022
3.246067
3.262278
3.278844
3.295289
3.312211
3.328189
3.345222
3.361578
3.378322
3.395067
3.412267
3.430722
3.445222
3.461456
3.478200
3.494800
3.511522
3.528089
3.545022
3.563444
3.578989
3.594911
3.612822
3.628311
3.645011
3.661711
3.678189
3.695089
3.711433
3.728878
3.744611
3.761556
3.778000
3.795422
3.811989
3.831856
