0.000000
0.020011
0.045756
0.058556
0.076511
0.093378
0.101878
0.118078
0.135111
0.151056
0.168878
0.184844
0.200411
0.217000
0.234578
0.250411
0.267544
0.284422
0.301933
0.317867
0.334978
0.350444
0.369778
0.383922
0.400989
0.418056
0.434111
0.451211
0.468956
0.484233
0.503100
0.517733
0.534267
0.551044
0.569544
0.586722
0.601311
0.616844
0.634467
0.650256
0.668456
0.683733
0.700556
0.716867
0.733711
0.750144
0.768322
0.783633
0.800356
0.816889
0.833833
0.850167
0.868556
0.883711
0.900422
0.917500
0.933756
0.950200
0.968367
0.983833
1.000211
1.017733
1.033456
1.050156
1.067289
1.083756
1.100622
1.117189
1.133756
1.150167
1.169211
1.183500
1.200900
1.216944
1.234300
1.250756
1.268433
1.283767
1.300222
1.316944
1.334222
1.350800
1.368967
1.383911
1.400811
1.417111
1.434633
1.450878
1.469000
1.483889
1.500489
1.517089
1.534278
1.550689
1.568533
1.583789
1.600556
1.617067
1.633578
1.650089
1.667889
1.683656
1.700344
1.717300
1.733822
1.751122
1.769378
1.784544
1.800978
1.817411
1.834278
1.857067
1.871556
1.883956
1.900700
1.917211
1.934444
1.950933
1.967533
1.984133
2.000322
2.024611
2.033556
2.050267
2.069456
2.083856
2.101556
2.130856
2.133644
2.150789
2.177767
2.183622
2.200856
2.217111
2.234456
2.263433
2.268522
2.285211
2.300778
2.317389
2.333878
2.350633
2.369122
2.383467
2.400911
2.417744
2.434233
2.450567
2.469300
2.483822
2.500900
2.517078
3.300767
3.317456
3.333922
3.350767
3.368544
3.384478
3.400711
