0.000000
1.216144
1.232456
1.249011
1.265967
1.284156
1.298856
1.315456
1.732211
1.749300
1.779311
1.785156
1.810622
1.816111
1.832200
1.858067
1.866089
1.884811
1.900667
1.924611
1.932778
1.950333
1.974233
1.985311
2.000022
2.017522
2.032211
2.049644
2.065633
2.083978
2.099656
2.115333
2.132133
2.148933
2.176700
2.184244
2.198567
2.215444
2.231956
2.248789
2.265344
2.284689
2.298822
2.315533
2.332244
2.348778
2.365311
2.382689
2.400067
2.415444
2.434067
2.458422
2.466422
2.484000
2.500622
3.185356
3.201400
3.216144
3.232878
3.249611
3.265933
3.285222
3.299911
3.316167
3.333278
3.349578
3.365878
3.384811
3.399067
3.416022
3.433856
3.449778
3.465478
3.487033
3.500344
3.515500
3.532011
3.548778
3.584867
