0.000000
0.432478
0.448878
0.477900
0.485433
0.511122
0.515056
0.532056
1.732222
1.749178
1.765189
1.785656
1.799211
1.815489
1.833344
1.848722
1.865078
1.885589
1.899789
1.919211
1.946856
1.949500
1.967078
1.986356
2.006578
2.015189
2.033033
2.050778
2.075189
2.081456
2.098456
2.116367
2.132078
2.148578
2.165078
2.181744
2.198411
2.215078
2.231744
2.248411
2.264978
2.281700
2.299378
2.315267
2.332600
2.349567
2.365478
2.382144
2.398811
2.415311
2.431811
2.448489
2.465167
2.481844
2.499344
2.515144
2.531656
2.548767
2.566700
2.581644
2.598244
2.615122
2.632933
2.648144
2.665178
2.685178
2.699856
2.716433
2.732000
2.748244
2.765011
2.784767
2.798522
2.815233
3.416011
3.431889
3.448556
3.468089
3.482167
3.498844
3.515633
3.749467
3.765878
3.782833
3.799789
3.816078
3.832644
3.850489
3.866644
3.885022
3.900111
