0.000000
0.013389
0.035100
0.055956
0.067922
0.088744
0.096656
0.111767
0.128478
0.145189
0.161744
0.178856
0.197478
0.215022
0.228733
0.245056
0.261967
0.278644
0.296778
0.311311
0.328133
0.344500
0.361500
0.378244
0.394478
0.412422
0.428267
0.444711
0.461600
0.478033
0.496789
0.511578
0.528333
0.545089
0.561844
0.578444
0.596611
0.611644
0.628722
0.644722
0.661667
0.678111
0.694978
1.697589
1.712133
1.729056
1.745389
1.762111
1.778367
1.796800
1.811733
1.828167
1.845211
1.861633
1.880567
1.895722
1.911644
1.928289
1.944933
1.964311
1.978144
1.997244
2.011644
2.028244
2.045289
2.061389
2.078156
2.097067
2.111911
2.128478
2.145044
2.161611
2.178178
2.196644
2.212311
2.229633
2.245978
2.261456
2.277978
2.296522
2.311267
2.329378
2.345189
2.363544
2.378011
2.397000
2.412556
2.428444
2.444811
2.461722
