0.000000
1.632667
1.655400
1.664367
1.688356
1.713311
1.730622
1.750556
1.763022
1.780156
1.796267
1.813178
1.829900
1.846622
1.865978
1.881467
1.897878
1.913211
1.940278
1.961067
1.980056
1.997056
2.017822
2.038944
2.050011
2.074311
2.079778
2.096489
2.114656
2.139811
2.149422
2.171322
2.189922
2.196167
2.214244
2.238400
2.246522
2.274333
2.280967
2.296311
2.314956
2.331189
2.347700
2.364556
2.381744
2.396733
2.413356
2.432044
2.446800
2.463544
2.480289
2.630611
2.646500
2.663244
2.680156
2.697278
2.713600
2.730056
2.963933
2.981733
3.000433
3.013400
3.031033
3.048222
3.064778
3.080144
3.098489
3.115922
3.130956
3.148789
3.163489
3.180222
3.197367
3.213822
3.230122
3.247011
3.263367
3.281133
3.298789
3.315056
3.330200
3.348589
3.363611
3.380256
3.396900
3.413867
3.430833
3.446833
3.464556
3.481589
3.496733
3.514600
3.531467
3.548333
3.562956
3.580867
3.596833
3.613767
3.630700
3.646711
3.663000
3.681122
3.697278
3.713656
3.730767
3.748078
3.764167
3.780978
3.797789
3.814289
3.831122
3.848067
3.864744
3.881833
3.898822
