0.000000
0.020611
0.478233
0.492667
0.508722
0.525767
0.542811
0.559856
0.577978
0.809200
0.825689
0.842400
0.859600
0.878856
0.892300
0.910544
0.925611
0.943311
0.958889
0.977744
0.992433
1.009144
1.026944
1.042789
1.059056
1.077189
1.091922
1.109167
1.125678
1.141900
1.158478
1.177644
1.192622
1.208667
1.225600
1.241833
1.258500
1.277800
1.291900
1.308478
1.326522
1.341822
1.358389
1.378367
1.392567
1.408656
1.425100
1.441822
1.458422
1.477244
1.492556
1.508422
1.525089
1.541756
1.558422
1.577656
1.592689
1.608967
1.625767
1.642989
1.677811
1.691878
1.708789
1.725967
1.742722
1.760667
1.778233
1.808967
1.812444
1.832489
1.842278
1.866611
1.877633
1.891844
1.919089
1.925156
1.941800
1.968300
1.976767
1.992189
2.008756
2.026622
2.042478
2.069722
2.079033
2.093056
2.109078
2.125467
2.142044
2.158622
2.177300
2.192078
2.208833
2.225700
2.242222
2.258500
2.278667
2.301944
2.308411
2.325844
2.342556
2.359267
2.378489
2.392300
2.409756
2.425844
2.442567
2.458711
2.478389
2.491844
2.508811
2.525389
2.542400
2.559044
2.576944
2.591967
2.608400
2.625144
2.643789
2.658833
2.677089
2.691778
2.709800
2.725278
2.743156
2.760044
2.777944
2.791978
2.808989
2.825778
2.842333
2.859367
2.877833
2.892389
2.908878
2.925189
2.943911
2.958411
2.977633
2.992989
3.008633
3.025189
3.043833
3.058856
3.078222
3.092378
3.108844
3.125500
3.142856
3.158822
3.177200
3.191933
3.210078
3.225911
3.243111
3.259933
3.278678
3.292656
3.308678
3.325233
3.341789
3.359878
3.378222
3.392011
3.408656
3.425056
3.442611
3.460167
3.477956
3.493333
3.509400
3.525889
3.542378
3.559744
3.577733
3.592700
3.608900
3.625578
3.642256
3.658933
3.677467
3.692111
3.709478
3.726667
3.742722
3.758467
3.777900
3.792111
3.808833
3.825556
3.842000
