0.000000
0.438167
0.463533
0.470289
0.487467
0.504900
0.524067
0.536667
1.723278
1.737356
1.754178
1.770678
1.787178
1.813589
1.828478
1.836756
1.854100
1.876267
1.887133
1.913922
1.933878
1.951400
1.972644
1.986956
2.003689
2.022300
2.054200
2.056156
2.076589
2.103778
2.123044
2.137478
2.153822
2.170567
2.187456
2.206289
2.220756
2.237500
2.254667
2.270244
2.286856
2.305978
2.320278
2.337322
2.353722
2.370322
2.387378
2.406389
2.420878
2.437344
2.453811
2.471244
2.487022
2.505789
2.520100
2.537444
2.553356
2.570511
2.586889
2.603611
2.620333
2.636889
2.655156
2.670689
2.686889
2.707900
2.722522
2.738256
2.753567
2.770078
2.787889
2.806856
2.820433
3.420533
3.437378
3.454833
3.471122
3.487167
3.504333
3.521167
3.737289
3.754400
3.771156
3.787700
3.804244
3.821189
3.837767
3.855244
3.871778
3.887700
