0.000000
0.784144
0.799089
0.815833
0.846178
0.852322
0.883200
0.898944
1.733122
1.751033
1.768400
1.783900
1.799400
1.816522
1.833289
1.850644
1.866000
1.882578
1.899756
1.915800
1.946244
1.950289
1.965867
1.983500
2.007256
2.016367
2.032489
2.051611
2.066400
2.083256
2.099522
2.127667
2.132278
2.150511
2.166344
2.183089
2.199567
2.216644
2.232678
2.250511
2.266333
2.283222
2.300111
2.316878
2.333022
2.351178
2.366133
2.382767
2.400978
2.415978
2.432689
2.449189
2.466011
2.482833
2.501256
2.750589
2.768078
2.783311
2.799633
2.816356
2.832667
2.850456
2.866167
2.882933
2.899700
2.916267
2.932989
2.950211
2.966644
2.983867
2.999678
3.016544
3.033156
3.051100
3.066344
3.083133
3.100322
3.116733
3.151767
3.166789
3.552022
3.752200
3.766267
3.782800
3.799900
3.815789
3.832467
3.850900
4.082811
