0.000000
0.014478
0.035356
0.058211
0.076967
0.088767
0.108922
0.113322
0.130311
0.147044
0.163778
0.180344
0.207767
0.211867
0.228944
0.246367
0.262322
0.278956
0.295589
0.311956
0.328489
0.345022
0.361789
0.378444
0.395100
0.411578
0.428711
0.446256
0.462267
0.478278
0.495267
0.511667
0.528422
0.545178
0.563256
0.578822
0.598811
0.611878
0.628933
0.645989
0.662011
0.678600
0.695467
0.712544
0.731133
0.745300
0.762122
0.779289
0.796144
0.812000
0.828656
0.844967
0.861822
0.888589
0.903722
0.912144
0.928289
0.944900
0.961511
0.978122
0.996489
1.012500
1.028900
1.047000
1.062100
1.081756
1.095556
1.112378
1.129200
1.145522
1.162367
1.179589
1.195933
1.212711
1.228867
1.245156
1.261967
1.279000
1.295700
1.312267
1.330089
1.345311
1.362078
1.379711
1.396789
1.413544
1.428333
1.445844
1.462333
1.479633
1.495256
1.511889
1.528800
1.545278
1.562744
1.578433
1.595256
1.613078
1.629967
1.646467
1.662456
1.678444
1.695433
1.712422
1.729000
1.745578
1.762289
1.779000
1.795233
1.813033
1.830022
1.845767
1.862811
1.878644
1.895111
1.912778
1.938411
1.946189
1.967756
1.978389
1.995056
2.013633
2.043500
2.045567
2.072444
2.080511
2.095589
2.112256
2.143233
2.146011
2.172578
2.178333
2.203122
2.211967
2.228100
2.246200
2.261789
2.278622
2.294933
2.311644
2.329656
2.344944
2.362744
2.379244
2.395600
2.411844
2.428089
2.444967
2.461711
2.478456
2.495811
2.512289
2.528978
2.544844
2.561522
2.578200
2.596167
2.611367
2.628344
2.647489
2.661756
2.678667
2.695267
2.711867
2.728956
2.746156
2.761900
2.778867
2.794933
2.812100
2.829144
2.845678
2.861856
2.878244
2.894822
2.911644
2.928656
2.945989
2.962867
2.978989
2.995300
3.011900
3.029911
3.045289
3.062478
3.078689
3.095478
3.112111
3.128889
3.145556
3.162222
3.178567
3.195433
3.212844
3.228878
3.245544
3.262578
3.279411
3.294833
3.311689
3.329267
3.345811
3.362356
3.378900
3.396356
3.411800
3.428211
3.444978
3.462056
3.478500
3.495067
3.511633
3.528200
3.544933
3.561667
3.578233
3.596589
3.612022
3.628356
3.644867
3.661378
3.678056
3.694733
3.712033
3.728911
